<svg width="32" height="32" viewBox="0 0 32 32" fill="none" xmlns="http://www.w3.org/2000/svg">
<path d="M1 14.9993C0.447715 14.9993 0 15.4471 0 15.9993C0 16.5516 0.447715 16.9993 1 16.9993V14.9993ZM2.66667 16.9993C3.21895 16.9993 3.66667 16.5516 3.66667 15.9993C3.66667 15.4471 3.21895 14.9993 2.66667 14.9993V16.9993ZM17 1C17 0.447715 16.5523 0 16 0C15.4477 0 15 0.447715 15 1H17ZM15 2.66667C15 3.21895 15.4477 3.66667 16 3.66667C16.5523 3.66667 17 3.21895 17 2.66667H15ZM29.333 14.9993C28.7807 14.9993 28.333 15.4471 28.333 15.9993C28.333 16.5516 28.7807 16.9993 29.333 16.9993V14.9993ZM30.9997 16.9993C31.552 16.9993 31.9997 16.5516 31.9997 15.9993C31.9997 15.4471 31.552 14.9993 30.9997 14.9993V16.9993ZM6.04011 4.62688C5.64959 4.23635 5.01643 4.23635 4.6259 4.62688C4.23538 5.0174 4.23538 5.65057 4.6259 6.04109L6.04011 4.62688ZM5.79257 7.20776C6.18309 7.59828 6.81626 7.59828 7.20678 7.20776C7.59731 6.81723 7.59731 6.18407 7.20678 5.79354L5.79257 7.20776ZM27.3738 6.04109C27.7643 5.65057 27.7643 5.0174 27.3738 4.62688C26.9832 4.23635 26.3501 4.23635 25.9596 4.62688L27.3738 6.04109ZM24.7929 5.79354C24.4024 6.18407 24.4024 6.81723 24.7929 7.20776C25.1834 7.59828 25.8166 7.59828 26.2071 7.20776L24.7929 5.79354ZM1 16.9993H2.66667V14.9993H1V16.9993ZM15 1V2.66667H17V1H15ZM29.333 16.9993H30.9997V14.9993H29.333V16.9993ZM4.6259 6.04109L5.79257 7.20776L7.20678 5.79354L6.04011 4.62688L4.6259 6.04109ZM25.9596 4.62688L24.7929 5.79354L26.2071 7.20776L27.3738 6.04109L25.9596 4.62688Z" fill="#D8B075"/>
<path d="M10.9999 22.666C8.13035 20.5139 6.95991 16.767 8.09419 13.3641C9.22848 9.96127 12.413 7.66602 15.9999 7.66602C19.5868 7.66602 22.7713 9.96127 23.9056 13.3641C25.0399 16.767 23.8694 20.5139 20.9999 22.666C19.6802 23.9724 19.0613 25.8291 19.3332 27.666C19.3332 29.507 17.8408 30.9994 15.9999 30.9994C14.1589 30.9994 12.6666 29.507 12.6666 27.666C12.9385 25.8291 12.3196 23.9724 10.9999 22.666" stroke="#D8B075" stroke-width="2" stroke-linecap="round" stroke-linejoin="round"/>
<path d="M12.1665 24.3333H19.8332" stroke="#D8B075" stroke-width="2" stroke-linecap="round" stroke-linejoin="round"/>
</svg>
