<svg width="1240" height="196" viewBox="0 0 1240 196" fill="none" xmlns="http://www.w3.org/2000/svg">
<path d="M65.528 191.661L15.5346 24.2039C14.2166 19.8885 12.8043 16.7927 11.2979 14.9164C9.79154 12.8525 7.15535 10.9762 3.38938 9.28755L1.37784e-06 7.88035L8.85757e-07 5.06594L74.8487 5.06593L74.8487 7.88034L68.9173 10.1319C64.5865 11.8205 61.6678 13.8844 60.1614 16.3236C58.6551 18.7627 58.5609 22.14 59.879 26.4554L90.6659 143.535L123.995 45.312L117.498 25.3297C116.18 21.3895 114.956 18.3875 113.827 16.3236C112.697 14.2597 110.814 12.571 108.178 11.2576L101.964 7.88033L101.964 5.06592L172.858 5.06591L172.858 7.88032L164.102 11.2576C160.336 12.571 158.171 14.5411 157.606 17.1679C157.229 19.607 157.7 22.7967 159.018 26.7369L194.889 146.349L228.783 28.9884C230.101 24.4853 230.572 20.5452 230.195 17.1679C229.819 13.7906 227.465 11.3514 223.134 9.85041L217.203 7.88031L217.203 5.0659L256.463 5.0659L256.463 7.8803L249.119 10.6947C245.353 12.0081 242.717 14.072 241.211 16.8864C239.704 19.7008 238.386 23.1719 237.256 27.2997L190.37 191.661L170.881 191.661L128.514 59.3841L85.0169 191.661L65.528 191.661Z" fill="#F7F6F5"/>
<path d="M265.19 190.817L265.19 188.003L271.686 185.47C274.887 184.156 277.053 182.468 278.183 180.404C279.501 178.152 280.16 175.15 280.16 171.398L280.16 24.4853C280.16 20.7328 279.595 17.8246 278.465 15.7607C277.524 13.5091 275.264 11.7267 271.686 10.4133L265.19 7.8803L265.19 5.06589L400.483 5.06587L402.177 48.4078L399.353 48.4078L387.208 21.9523C385.513 18.575 383.724 15.8545 381.841 13.7906C379.958 11.7266 377.134 10.6947 373.368 10.6947L322.527 10.6947L322.527 92.0312L352.749 92.0312C356.515 92.0312 359.339 91.093 361.222 89.2168C363.294 87.1529 365.083 84.4323 366.589 81.055L372.238 69.7973L375.062 69.7973L375.062 120.457L372.238 120.457L366.589 108.636C364.894 105.259 363.105 102.632 361.222 100.756C359.339 98.6919 356.515 97.66 352.749 97.66L322.527 97.66L322.527 185.188L379.582 185.188C383.348 185.188 386.266 184.25 388.337 182.374C390.409 180.31 392.103 177.495 393.421 173.931L405.002 147.475L407.826 147.475L406.132 190.817L265.19 190.817Z" fill="#F7F6F5"/>
<path d="M421.296 190.817L421.296 187.44L519.305 10.6947L465.64 10.6947C459.426 10.6947 454.342 12.1019 450.388 14.9163C446.622 17.7307 443.232 21.8585 440.22 27.2997L427.227 50.0964L424.403 50.0964L426.38 5.06587L564.497 5.06584L564.497 8.44314L466.487 185.188L528.061 185.188C534.275 185.188 539.171 183.781 542.748 180.967C546.514 177.965 549.904 173.743 552.916 168.302L565.062 145.786L567.886 145.786L565.909 190.817L421.296 190.817Z" fill="#F7F6F5"/>
<path d="M667.213 195.883C655.727 195.883 644.617 193.819 633.884 189.691C623.339 185.563 613.83 179.465 605.357 171.398C597.072 163.142 590.481 152.916 585.585 140.72C580.69 128.525 578.242 114.265 578.242 97.9414C578.242 81.8054 580.69 67.6396 585.585 55.4438C590.481 43.248 597.166 33.1161 605.639 25.0481C614.113 16.7925 623.622 10.6008 634.167 6.47303C644.9 2.1576 655.915 -0.000114684 667.213 -0.000116659C678.699 -0.000118668 689.715 2.06378 700.259 6.19159C710.992 10.1318 720.502 16.2296 728.787 24.4852C737.26 32.5532 743.945 42.7789 748.841 55.1623C753.736 67.3581 756.184 81.6178 756.184 97.9414C756.184 113.89 753.736 128.056 748.841 140.439C743.945 152.635 737.26 162.86 728.787 171.116C720.502 179.184 710.992 185.376 700.259 189.691C689.715 193.819 678.699 195.883 667.213 195.883ZM667.213 189.973C677.569 189.973 685.949 187.252 692.351 181.811C698.753 176.182 703.366 166.707 706.191 153.385C709.204 139.876 710.71 121.395 710.71 97.9414C710.71 74.3003 709.204 55.819 706.191 42.4975C703.366 28.9883 698.753 19.5131 692.351 14.0719C685.949 8.44311 677.569 5.6287 667.213 5.6287C657.045 5.6287 648.76 8.44312 642.358 14.0719C635.955 19.5131 631.248 28.9883 628.235 42.4975C625.411 55.819 623.998 74.3003 623.998 97.9414C623.998 121.395 625.411 139.876 628.235 153.385C631.248 166.707 635.955 176.182 642.358 181.811C648.76 187.252 657.045 189.973 667.213 189.973Z" fill="#F7F6F5"/>
<path d="M763.336 190.817L763.336 188.003L769.267 186.032C773.033 184.719 775.481 183.03 776.611 180.967C777.741 178.715 778.306 175.619 778.306 171.679L778.306 24.4852C778.306 20.7327 777.741 17.8245 776.611 15.7606C775.669 13.509 773.41 11.7266 769.832 10.4132L763.336 7.88022L763.336 5.06581L844.116 5.06579C866.335 5.06579 883.376 9.28741 895.239 17.7306C907.102 25.9862 913.033 37.5253 913.033 52.3479C913.033 60.6035 909.926 68.8591 903.712 77.1147C897.499 85.3703 887.707 91.7496 874.338 96.2527L913.598 173.93C915.293 177.12 917.176 179.747 919.247 181.811C921.507 183.687 924.425 185.376 928.003 186.877L931.675 188.284L931.675 190.817L881.117 190.817L839.314 102.163L820.108 102.163L820.108 171.679C820.108 175.244 820.673 178.152 821.803 180.404C822.932 182.655 825.286 184.344 828.864 185.47L835.643 188.003L835.643 190.817L763.336 190.817ZM820.108 96.5342L833.665 96.5341C847.223 96.5341 857.014 92.9692 863.04 85.8394C869.066 78.5219 872.078 67.7333 872.078 53.4737C872.078 39.0263 869.254 28.3316 863.605 21.3894C857.956 14.2595 848.447 10.6946 835.078 10.6946L820.108 10.6946L820.108 96.5342Z" fill="#F7F6F5"/>
<path d="M940.693 190.817L940.693 188.002L947.19 185.47C950.391 184.156 952.556 182.467 953.686 180.404C955.004 178.152 955.663 175.15 955.663 171.397L955.663 24.4852C955.663 20.7327 955.098 17.8244 953.968 15.7605C953.027 13.509 950.767 11.7266 947.19 10.4132L940.693 7.88019L940.693 5.06578L1075.99 5.06575L1077.68 48.4077L1074.86 48.4077L1062.71 21.9522C1061.02 18.5749 1059.23 15.8543 1057.34 13.7904C1055.46 11.7265 1052.64 10.6946 1048.87 10.6946L998.03 10.6946L998.03 92.0311L1028.25 92.0311C1032.02 92.0311 1034.84 91.0929 1036.73 89.2166C1038.8 87.1527 1040.59 84.4322 1042.09 81.0549L1047.74 69.7972L1050.57 69.7972L1050.57 120.457L1047.74 120.457L1042.09 108.636C1040.4 105.259 1038.61 102.632 1036.73 100.756C1034.84 98.6918 1032.02 97.6599 1028.25 97.6599L998.03 97.6599L998.03 185.188L1055.08 185.188C1058.85 185.188 1061.77 184.25 1063.84 182.374C1065.91 180.31 1067.61 177.495 1068.92 173.93L1080.51 147.475L1083.33 147.475L1081.63 190.817L940.693 190.817Z" fill="#F7F6F5"/>
<path d="M1097.36 190.817L1097.36 188.002L1103.86 185.47C1107.06 184.156 1109.23 182.467 1110.36 180.404C1111.67 178.152 1112.33 175.15 1112.33 171.397L1112.33 24.4852C1112.33 20.7326 1111.77 17.8244 1110.64 15.7605C1109.7 13.509 1107.44 11.7265 1103.86 10.4131L1097.36 7.88016L1097.36 5.06575L1232.66 5.06573L1234.35 48.4076L1231.53 48.4076L1219.38 21.9522C1217.69 18.5749 1215.9 15.8543 1214.01 13.7904C1212.13 11.7265 1209.31 10.6945 1205.54 10.6945L1154.7 10.6946L1154.7 92.031L1184.92 92.031C1188.69 92.031 1191.51 91.0929 1193.4 89.2166C1195.47 87.1527 1197.26 84.4321 1198.76 81.0548L1204.41 69.7972L1207.24 69.7972L1207.24 120.457L1204.41 120.457L1198.76 108.636C1197.07 105.259 1195.28 102.632 1193.4 100.756C1191.51 98.6918 1188.69 97.6598 1184.92 97.6598L1154.7 97.6599L1154.7 185.188L1211.76 185.188C1215.52 185.188 1218.44 184.25 1220.51 182.374C1222.58 180.31 1224.28 177.495 1225.6 173.93L1237.18 147.475L1240 147.475L1238.31 190.817L1097.36 190.817Z" fill="#F7F6F5"/>
</svg>
