<svg width="32" height="30" viewBox="0 0 32 30" fill="none" xmlns="http://www.w3.org/2000/svg">
<path d="M10 29H22" stroke="#D8B075" stroke-width="2" stroke-linecap="round" stroke-linejoin="round"/>
<path d="M16 23V29" stroke="#D8B075" stroke-width="2" stroke-linecap="round" stroke-linejoin="round"/>
<path d="M6 1H26" stroke="#D8B075" stroke-width="2" stroke-linecap="round" stroke-linejoin="round"/>
<path d="M26 1V14.5385C26 19.2116 21.5228 23 16 23C10.4772 23 6 19.2116 6 14.5385V1" stroke="#D8B075" stroke-width="2" stroke-linecap="round" stroke-linejoin="round"/>
<mask id="path-5-inside-1_2120_209" fill="white">
<path d="M0 6C0 5.44772 0.447715 5 1 5H6C6.55228 5 7 5.44772 7 6V14C7 14.5523 6.55228 15 6 15H4C1.79086 15 0 13.2091 0 11V6Z"/>
</mask>
<path d="M0 6C0 5.44772 0.447715 5 1 5H6C6.55228 5 7 5.44772 7 6V14C7 14.5523 6.55228 15 6 15H4C1.79086 15 0 13.2091 0 11V6Z" stroke="#D8B075" stroke-width="4" mask="url(#path-5-inside-1_2120_209)"/>
<mask id="path-6-inside-2_2120_209" fill="white">
<path d="M32 6C32 5.44772 31.5523 5 31 5H26C25.4477 5 25 5.44772 25 6V14C25 14.5523 25.4477 15 26 15H28C30.2091 15 32 13.2091 32 11V6Z"/>
</mask>
<path d="M32 6C32 5.44772 31.5523 5 31 5H26C25.4477 5 25 5.44772 25 6V14C25 14.5523 25.4477 15 26 15H28C30.2091 15 32 13.2091 32 11V6Z" stroke="#D8B075" stroke-width="4" mask="url(#path-6-inside-2_2120_209)"/>
</svg>
