<svg width="26" height="21" viewBox="0 0 26 21" fill="none" xmlns="http://www.w3.org/2000/svg">
<path d="M11.3156 0.504003C8.32115 3.304 6.82392 6.16 6.82392 9.072C6.82392 10.472 8.1196 12.628 10.711 15.54V15.708L3.88704 21C1.29568 19.208 0 16.912 0 14.112C0 11.48 1.12292 8.876 3.36877 6.3C5.61462 3.668 8.1196 1.568 10.8837 0L11.3156 0.504003ZM26 0.504003C23.0055 3.304 21.5083 6.16 21.5083 9.072C21.5083 10.472 22.804 12.628 25.3953 15.54V15.708L18.5714 21C15.9801 19.208 14.6844 16.912 14.6844 14.112C14.6844 11.48 15.8073 8.876 18.0532 6.3C20.299 3.668 22.804 1.568 25.5681 0L26 0.504003Z" fill="#D8B075"/>
</svg>
