<svg width="615" height="240" viewBox="0 0 615 240" fill="none" xmlns="http://www.w3.org/2000/svg">
<rect width="615" height="240" fill="#343434"/>
<path d="M173.854 142.216L161.758 101.836C161.439 100.796 161.098 100.049 160.733 99.5968C160.369 99.0992 159.731 98.6467 158.82 98.2395L158 97.9002V97.2216H176.109V97.9002L174.674 98.4431C173.626 98.8503 172.92 99.348 172.555 99.9362C172.191 100.524 172.168 101.339 172.487 102.379L179.935 130.611L187.999 106.926L186.427 102.108C186.108 101.158 185.812 100.434 185.539 99.9362C185.265 99.4385 184.81 99.0313 184.172 98.7146L182.669 97.9002V97.2216H199.821V97.9002L197.702 98.7146C196.791 99.0313 196.267 99.5064 196.13 100.14C196.039 100.728 196.153 101.497 196.472 102.447L205.151 131.29L213.351 102.99C213.67 101.904 213.783 100.954 213.692 100.14C213.601 99.3254 213.032 98.7372 211.984 98.3753L210.549 97.9002V97.2216H220.047V97.9002L218.271 98.5789C217.36 98.8956 216.722 99.3933 216.357 100.072C215.993 100.751 215.674 101.588 215.401 102.583L204.057 142.216H199.342L189.092 110.32L178.569 142.216H173.854Z" fill="#D8B075"/>
<path d="M222.159 142.012V141.334L223.731 140.723C224.505 140.406 225.029 139.999 225.302 139.501C225.621 138.959 225.781 138.235 225.781 137.33V101.904C225.781 100.999 225.644 100.298 225.371 99.8004C225.143 99.2575 224.596 98.8277 223.731 98.511L222.159 97.9002V97.2216H254.891L255.301 107.673H254.618L251.679 101.293C251.269 100.479 250.836 99.8231 250.381 99.3254C249.925 98.8277 249.242 98.5789 248.331 98.5789H236.031V118.192H243.342C244.254 118.192 244.937 117.966 245.393 117.513C245.894 117.016 246.326 116.36 246.691 115.545L248.058 112.831H248.741V125.046H248.058L246.691 122.196C246.281 121.382 245.848 120.748 245.393 120.296C244.937 119.798 244.254 119.549 243.342 119.549H236.031V140.655H249.834C250.745 140.655 251.451 140.429 251.953 139.977C252.454 139.479 252.864 138.8 253.183 137.941L255.984 131.561H256.668L256.258 142.012H222.159Z" fill="#D8B075"/>
<path d="M259.926 142.012V141.198L283.638 98.5789H270.655C269.151 98.5789 267.921 98.9182 266.965 99.5968C266.054 100.275 265.234 101.271 264.505 102.583L261.361 108.08H260.678L261.156 97.2216H294.572V98.036L270.86 140.655H285.757C287.26 140.655 288.444 140.316 289.31 139.637C290.221 138.913 291.041 137.895 291.77 136.583L294.708 131.154H295.392L294.913 142.012H259.926Z" fill="#D8B075"/>
<path d="M319.422 143.234C316.644 143.234 313.956 142.736 311.359 141.741C308.808 140.746 306.507 139.275 304.457 137.33C302.453 135.339 300.858 132.873 299.674 129.933C298.489 126.992 297.897 123.553 297.897 119.617C297.897 115.726 298.489 112.31 299.674 109.369C300.858 106.429 302.476 103.985 304.526 102.04C306.576 100.049 308.876 98.5562 311.427 97.5609C314.024 96.5203 316.689 96 319.422 96C322.201 96 324.866 96.4977 327.418 97.493C330.014 98.4431 332.315 99.9135 334.319 101.904C336.369 103.85 337.987 106.315 339.171 109.302C340.356 112.242 340.948 115.681 340.948 119.617C340.948 123.463 340.356 126.879 339.171 129.865C337.987 132.805 336.369 135.271 334.319 137.262C332.315 139.207 330.014 140.7 327.418 141.741C324.866 142.736 322.201 143.234 319.422 143.234ZM319.422 141.809C321.928 141.809 323.955 141.153 325.504 139.841C327.053 138.483 328.169 136.199 328.853 132.986C329.582 129.729 329.946 125.272 329.946 119.617C329.946 113.916 329.582 109.46 328.853 106.248C328.169 102.99 327.053 100.705 325.504 99.3933C323.955 98.0359 321.928 97.3573 319.422 97.3573C316.962 97.3573 314.958 98.0359 313.409 99.3933C311.86 100.705 310.721 102.99 309.992 106.248C309.309 109.46 308.967 113.916 308.967 119.617C308.967 125.272 309.309 129.729 309.992 132.986C310.721 136.199 311.86 138.483 313.409 139.841C314.958 141.153 316.962 141.809 319.422 141.809Z" fill="#D8B075"/>
<path d="M342.678 142.012V141.334L344.113 140.859C345.024 140.542 345.616 140.135 345.89 139.637C346.163 139.094 346.3 138.348 346.3 137.398V101.904C346.3 100.999 346.163 100.298 345.89 99.8004C345.662 99.2575 345.115 98.8277 344.25 98.511L342.678 97.9002V97.2216H362.222C367.597 97.2216 371.72 98.2395 374.59 100.275C377.46 102.266 378.895 105.049 378.895 108.623C378.895 110.614 378.143 112.604 376.64 114.595C375.137 116.586 372.768 118.124 369.533 119.21L379.032 137.941C379.442 138.71 379.897 139.343 380.398 139.841C380.945 140.293 381.651 140.7 382.517 141.062L383.405 141.402V142.012H371.173L361.06 120.635H356.413V137.398C356.413 138.257 356.55 138.959 356.823 139.501C357.097 140.044 357.666 140.452 358.532 140.723L360.172 141.334V142.012H342.678ZM356.413 119.278H359.693C362.973 119.278 365.342 118.418 366.8 116.699C368.258 114.934 368.987 112.333 368.987 108.894C368.987 105.411 368.303 102.832 366.937 101.158C365.57 99.4385 363.269 98.5789 360.035 98.5789H356.413V119.278Z" fill="#D8B075"/>
<path d="M385.587 142.012V141.334L387.159 140.723C387.933 140.406 388.457 139.999 388.73 139.501C389.049 138.959 389.209 138.235 389.209 137.33V101.904C389.209 100.999 389.072 100.298 388.799 99.8004C388.571 99.2575 388.024 98.8277 387.159 98.511L385.587 97.9002V97.2216H418.319L418.729 107.673H418.046L415.107 101.293C414.697 100.479 414.265 99.8231 413.809 99.3254C413.354 98.8277 412.67 98.5789 411.759 98.5789H399.459V118.192H406.771C407.682 118.192 408.365 117.966 408.821 117.513C409.322 117.016 409.755 116.36 410.119 115.545L411.486 112.831H412.169V125.046H411.486L410.119 122.196C409.709 121.382 409.276 120.748 408.821 120.296C408.365 119.798 407.682 119.549 406.771 119.549H399.459V140.655H413.262C414.174 140.655 414.88 140.429 415.381 139.977C415.882 139.479 416.292 138.8 416.611 137.941L419.413 131.561H420.096L419.686 142.012H385.587Z" fill="#D8B075"/>
<path d="M423.491 142.012V141.334L425.063 140.723C425.837 140.406 426.361 139.999 426.635 139.501C426.953 138.959 427.113 138.235 427.113 137.33V101.904C427.113 100.999 426.976 100.298 426.703 99.8004C426.475 99.2575 425.928 98.8277 425.063 98.511L423.491 97.9002V97.2216H456.223L456.633 107.673H455.95L453.012 101.293C452.602 100.479 452.169 99.8231 451.713 99.3254C451.258 98.8277 450.574 98.5789 449.663 98.5789H437.363V118.192H444.675C445.586 118.192 446.269 117.966 446.725 117.513C447.226 117.016 447.659 116.36 448.023 115.545L449.39 112.831H450.073V125.046H449.39L448.023 122.196C447.613 121.382 447.18 120.748 446.725 120.296C446.269 119.798 445.586 119.549 444.675 119.549H437.363V140.655H451.167C452.078 140.655 452.784 140.429 453.285 139.977C453.786 139.479 454.196 138.8 454.515 137.941L457.317 131.561H458L457.59 142.012H423.491Z" fill="#D8B075"/>
</svg>
