<svg width="170" height="50" viewBox="0 0 170 50" fill="none" xmlns="http://www.w3.org/2000/svg">
<circle cx="25" cy="25" r="24.5" fill="white" stroke="#EAEAEA"/>
<path d="M19.4989 33.75L15.1129 19.1667C14.9972 18.7909 14.8733 18.5212 14.7412 18.3578C14.609 18.1781 14.3778 18.0147 14.0474 17.8676L13.75 17.7451V17.5H20.3166V17.7451L19.7963 17.9412C19.4163 18.0882 19.1602 18.268 19.0281 18.4804C18.8959 18.6928 18.8877 18.9869 19.0033 19.3627L21.7043 29.5588L24.6283 21.0049L24.0584 19.2647C23.9427 18.9216 23.8354 18.6601 23.7362 18.4804C23.6371 18.3007 23.4719 18.1536 23.2406 18.0392L22.6955 17.7451V17.5H28.9152V17.7451L28.147 18.0392C27.8166 18.1536 27.6267 18.3252 27.5771 18.5539C27.5441 18.7663 27.5854 19.0441 27.701 19.3873L30.848 29.8039L33.8216 19.5833C33.9372 19.1912 33.9785 18.848 33.9455 18.5539C33.9124 18.2598 33.7059 18.0474 33.326 17.9167L32.8056 17.7451V17.5H36.25V17.7451L35.6057 17.9902C35.2753 18.1046 35.0441 18.2843 34.9119 18.5294C34.7797 18.7745 34.6641 19.0768 34.565 19.4363L30.4515 33.75H28.7417L25.0248 22.2304L21.2087 33.75H19.4989Z" fill="#222222"/>
<circle cx="65" cy="25" r="25" fill="#222222"/>
<path d="M59.4989 33.75L55.1129 19.1667C54.9972 18.7909 54.8733 18.5212 54.7412 18.3578C54.609 18.1781 54.3778 18.0147 54.0474 17.8676L53.75 17.7451V17.5H60.3166V17.7451L59.7963 17.9412C59.4163 18.0882 59.1602 18.268 59.0281 18.4804C58.8959 18.6928 58.8877 18.9869 59.0033 19.3627L61.7043 29.5588L64.6283 21.0049L64.0584 19.2647C63.9427 18.9216 63.8354 18.6601 63.7362 18.4804C63.6371 18.3007 63.4719 18.1536 63.2406 18.0392L62.6955 17.7451V17.5H68.9152V17.7451L68.147 18.0392C67.8166 18.1536 67.6267 18.3252 67.5771 18.5539C67.5441 18.7663 67.5854 19.0441 67.701 19.3873L70.848 29.8039L73.8216 19.5833C73.9372 19.1912 73.9785 18.848 73.9455 18.5539C73.9124 18.2598 73.7059 18.0474 73.326 17.9167L72.8056 17.7451V17.5H76.25V17.7451L75.6057 17.9902C75.2753 18.1046 75.0441 18.2843 74.9119 18.5294C74.7797 18.7745 74.6641 19.0768 74.565 19.4363L70.4515 33.75H68.7417L65.0248 22.2304L61.2087 33.75H59.4989Z" fill="white"/>
<circle cx="105" cy="25" r="24.5" fill="white" stroke="#EAEAEA"/>
<path d="M99.4989 33.75L95.1129 19.1667C94.9972 18.7909 94.8733 18.5212 94.7412 18.3578C94.609 18.1781 94.3778 18.0147 94.0474 17.8676L93.75 17.7451V17.5H100.317V17.7451L99.7963 17.9412C99.4163 18.0882 99.1602 18.268 99.0281 18.4804C98.8959 18.6928 98.8877 18.9869 99.0033 19.3627L101.704 29.5588L104.628 21.0049L104.058 19.2647C103.943 18.9216 103.835 18.6601 103.736 18.4804C103.637 18.3007 103.472 18.1536 103.241 18.0392L102.695 17.7451V17.5H108.915V17.7451L108.147 18.0392C107.817 18.1536 107.627 18.3252 107.577 18.5539C107.544 18.7663 107.585 19.0441 107.701 19.3873L110.848 29.8039L113.822 19.5833C113.937 19.1912 113.979 18.848 113.945 18.5539C113.912 18.2598 113.706 18.0474 113.326 17.9167L112.806 17.7451V17.5H116.25V17.7451L115.606 17.9902C115.275 18.1046 115.044 18.2843 114.912 18.5294C114.78 18.7745 114.664 19.0768 114.565 19.4363L110.452 33.75H108.742L105.025 22.2304L101.209 33.75H99.4989Z" fill="white"/>
<path d="M99.4989 33.75L95.1129 19.1667C94.9972 18.7909 94.8733 18.5212 94.7412 18.3578C94.609 18.1781 94.3778 18.0147 94.0474 17.8676L93.75 17.7451V17.5H100.317V17.7451L99.7963 17.9412C99.4163 18.0882 99.1602 18.268 99.0281 18.4804C98.8959 18.6928 98.8877 18.9869 99.0033 19.3627L101.704 29.5588L104.628 21.0049L104.058 19.2647C103.943 18.9216 103.835 18.6601 103.736 18.4804C103.637 18.3007 103.472 18.1536 103.241 18.0392L102.695 17.7451V17.5H108.915V17.7451L108.147 18.0392C107.817 18.1536 107.627 18.3252 107.577 18.5539C107.544 18.7663 107.585 19.0441 107.701 19.3873L110.848 29.8039L113.822 19.5833C113.937 19.1912 113.979 18.848 113.945 18.5539C113.912 18.2598 113.706 18.0474 113.326 17.9167L112.806 17.7451V17.5H116.25V17.7451L115.606 17.9902C115.275 18.1046 115.044 18.2843 114.912 18.5294C114.78 18.7745 114.664 19.0768 114.565 19.4363L110.452 33.75H108.742L105.025 22.2304L101.209 33.75H99.4989Z" fill="white"/>
<path d="M99.4989 33.75L95.1129 19.1667C94.9972 18.7909 94.8733 18.5212 94.7412 18.3578C94.609 18.1781 94.3778 18.0147 94.0474 17.8676L93.75 17.7451V17.5H100.317V17.7451L99.7963 17.9412C99.4163 18.0882 99.1602 18.268 99.0281 18.4804C98.8959 18.6928 98.8877 18.9869 99.0033 19.3627L101.704 29.5588L104.628 21.0049L104.058 19.2647C103.943 18.9216 103.835 18.6601 103.736 18.4804C103.637 18.3007 103.472 18.1536 103.241 18.0392L102.695 17.7451V17.5H108.915V17.7451L108.147 18.0392C107.817 18.1536 107.627 18.3252 107.577 18.5539C107.544 18.7663 107.585 19.0441 107.701 19.3873L110.848 29.8039L113.822 19.5833C113.937 19.1912 113.979 18.848 113.945 18.5539C113.912 18.2598 113.706 18.0474 113.326 17.9167L112.806 17.7451V17.5H116.25V17.7451L115.606 17.9902C115.275 18.1046 115.044 18.2843 114.912 18.5294C114.78 18.7745 114.664 19.0768 114.565 19.4363L110.452 33.75H108.742L105.025 22.2304L101.209 33.75H99.4989Z" fill="white"/>
<path d="M99.4989 33.75L95.1129 19.1667C94.9972 18.7909 94.8733 18.5212 94.7412 18.3578C94.609 18.1781 94.3778 18.0147 94.0474 17.8676L93.75 17.7451V17.5H100.317V17.7451L99.7963 17.9412C99.4163 18.0882 99.1602 18.268 99.0281 18.4804C98.8959 18.6928 98.8877 18.9869 99.0033 19.3627L101.704 29.5588L104.628 21.0049L104.058 19.2647C103.943 18.9216 103.835 18.6601 103.736 18.4804C103.637 18.3007 103.472 18.1536 103.241 18.0392L102.695 17.7451V17.5H108.915V17.7451L108.147 18.0392C107.817 18.1536 107.627 18.3252 107.577 18.5539C107.544 18.7663 107.585 19.0441 107.701 19.3873L110.848 29.8039L113.822 19.5833C113.937 19.1912 113.979 18.848 113.945 18.5539C113.912 18.2598 113.706 18.0474 113.326 17.9167L112.806 17.7451V17.5H116.25V17.7451L115.606 17.9902C115.275 18.1046 115.044 18.2843 114.912 18.5294C114.78 18.7745 114.664 19.0768 114.565 19.4363L110.452 33.75H108.742L105.025 22.2304L101.209 33.75H99.4989Z" fill="white"/>
<path d="M99.4989 33.75L95.1129 19.1667C94.9972 18.7909 94.8733 18.5212 94.7412 18.3578C94.609 18.1781 94.3778 18.0147 94.0474 17.8676L93.75 17.7451V17.5H100.317V17.7451L99.7963 17.9412C99.4163 18.0882 99.1602 18.268 99.0281 18.4804C98.8959 18.6928 98.8877 18.9869 99.0033 19.3627L101.704 29.5588L104.628 21.0049L104.058 19.2647C103.943 18.9216 103.835 18.6601 103.736 18.4804C103.637 18.3007 103.472 18.1536 103.241 18.0392L102.695 17.7451V17.5H108.915V17.7451L108.147 18.0392C107.817 18.1536 107.627 18.3252 107.577 18.5539C107.544 18.7663 107.585 19.0441 107.701 19.3873L110.848 29.8039L113.822 19.5833C113.937 19.1912 113.979 18.848 113.945 18.5539C113.912 18.2598 113.706 18.0474 113.326 17.9167L112.806 17.7451V17.5H116.25V17.7451L115.606 17.9902C115.275 18.1046 115.044 18.2843 114.912 18.5294C114.78 18.7745 114.664 19.0768 114.565 19.4363L110.452 33.75H108.742L105.025 22.2304L101.209 33.75H99.4989Z" fill="url(#paint0_linear_2633_159)"/>
<circle cx="145" cy="25" r="25" fill="#222222"/>
<path d="M139.499 33.75L135.113 19.1667C134.997 18.7909 134.873 18.5212 134.741 18.3578C134.609 18.1781 134.378 18.0147 134.047 17.8676L133.75 17.7451V17.5H140.317V17.7451L139.796 17.9412C139.416 18.0882 139.16 18.268 139.028 18.4804C138.896 18.6928 138.888 18.9869 139.003 19.3627L141.704 29.5588L144.628 21.0049L144.058 19.2647C143.943 18.9216 143.835 18.6601 143.736 18.4804C143.637 18.3007 143.472 18.1536 143.241 18.0392L142.695 17.7451V17.5H148.915V17.7451L148.147 18.0392C147.817 18.1536 147.627 18.3252 147.577 18.5539C147.544 18.7663 147.585 19.0441 147.701 19.3873L150.848 29.8039L153.822 19.5833C153.937 19.1912 153.979 18.848 153.945 18.5539C153.912 18.2598 153.706 18.0474 153.326 17.9167L152.806 17.7451V17.5H156.25V17.7451L155.606 17.9902C155.275 18.1046 155.044 18.2843 154.912 18.5294C154.78 18.7745 154.664 19.0768 154.565 19.4363L150.452 33.75H148.742L145.025 22.2304L141.209 33.75H139.499Z" fill="white"/>
<path d="M139.499 33.75L135.113 19.1667C134.997 18.7909 134.873 18.5212 134.741 18.3578C134.609 18.1781 134.378 18.0147 134.047 17.8676L133.75 17.7451V17.5H140.317V17.7451L139.796 17.9412C139.416 18.0882 139.16 18.268 139.028 18.4804C138.896 18.6928 138.888 18.9869 139.003 19.3627L141.704 29.5588L144.628 21.0049L144.058 19.2647C143.943 18.9216 143.835 18.6601 143.736 18.4804C143.637 18.3007 143.472 18.1536 143.241 18.0392L142.695 17.7451V17.5H148.915V17.7451L148.147 18.0392C147.817 18.1536 147.627 18.3252 147.577 18.5539C147.544 18.7663 147.585 19.0441 147.701 19.3873L150.848 29.8039L153.822 19.5833C153.937 19.1912 153.979 18.848 153.945 18.5539C153.912 18.2598 153.706 18.0474 153.326 17.9167L152.806 17.7451V17.5H156.25V17.7451L155.606 17.9902C155.275 18.1046 155.044 18.2843 154.912 18.5294C154.78 18.7745 154.664 19.0768 154.565 19.4363L150.452 33.75H148.742L145.025 22.2304L141.209 33.75H139.499Z" fill="white"/>
<path d="M139.499 33.75L135.113 19.1667C134.997 18.7909 134.873 18.5212 134.741 18.3578C134.609 18.1781 134.378 18.0147 134.047 17.8676L133.75 17.7451V17.5H140.317V17.7451L139.796 17.9412C139.416 18.0882 139.16 18.268 139.028 18.4804C138.896 18.6928 138.888 18.9869 139.003 19.3627L141.704 29.5588L144.628 21.0049L144.058 19.2647C143.943 18.9216 143.835 18.6601 143.736 18.4804C143.637 18.3007 143.472 18.1536 143.241 18.0392L142.695 17.7451V17.5H148.915V17.7451L148.147 18.0392C147.817 18.1536 147.627 18.3252 147.577 18.5539C147.544 18.7663 147.585 19.0441 147.701 19.3873L150.848 29.8039L153.822 19.5833C153.937 19.1912 153.979 18.848 153.945 18.5539C153.912 18.2598 153.706 18.0474 153.326 17.9167L152.806 17.7451V17.5H156.25V17.7451L155.606 17.9902C155.275 18.1046 155.044 18.2843 154.912 18.5294C154.78 18.7745 154.664 19.0768 154.565 19.4363L150.452 33.75H148.742L145.025 22.2304L141.209 33.75H139.499Z" fill="white"/>
<path d="M139.499 33.75L135.113 19.1667C134.997 18.7909 134.873 18.5212 134.741 18.3578C134.609 18.1781 134.378 18.0147 134.047 17.8676L133.75 17.7451V17.5H140.317V17.7451L139.796 17.9412C139.416 18.0882 139.16 18.268 139.028 18.4804C138.896 18.6928 138.888 18.9869 139.003 19.3627L141.704 29.5588L144.628 21.0049L144.058 19.2647C143.943 18.9216 143.835 18.6601 143.736 18.4804C143.637 18.3007 143.472 18.1536 143.241 18.0392L142.695 17.7451V17.5H148.915V17.7451L148.147 18.0392C147.817 18.1536 147.627 18.3252 147.577 18.5539C147.544 18.7663 147.585 19.0441 147.701 19.3873L150.848 29.8039L153.822 19.5833C153.937 19.1912 153.979 18.848 153.945 18.5539C153.912 18.2598 153.706 18.0474 153.326 17.9167L152.806 17.7451V17.5H156.25V17.7451L155.606 17.9902C155.275 18.1046 155.044 18.2843 154.912 18.5294C154.78 18.7745 154.664 19.0768 154.565 19.4363L150.452 33.75H148.742L145.025 22.2304L141.209 33.75H139.499Z" fill="white"/>
<path d="M139.499 33.75L135.113 19.1667C134.997 18.7909 134.873 18.5212 134.741 18.3578C134.609 18.1781 134.378 18.0147 134.047 17.8676L133.75 17.7451V17.5H140.317V17.7451L139.796 17.9412C139.416 18.0882 139.16 18.268 139.028 18.4804C138.896 18.6928 138.888 18.9869 139.003 19.3627L141.704 29.5588L144.628 21.0049L144.058 19.2647C143.943 18.9216 143.835 18.6601 143.736 18.4804C143.637 18.3007 143.472 18.1536 143.241 18.0392L142.695 17.7451V17.5H148.915V17.7451L148.147 18.0392C147.817 18.1536 147.627 18.3252 147.577 18.5539C147.544 18.7663 147.585 19.0441 147.701 19.3873L150.848 29.8039L153.822 19.5833C153.937 19.1912 153.979 18.848 153.945 18.5539C153.912 18.2598 153.706 18.0474 153.326 17.9167L152.806 17.7451V17.5H156.25V17.7451L155.606 17.9902C155.275 18.1046 155.044 18.2843 154.912 18.5294C154.78 18.7745 154.664 19.0768 154.565 19.4363L150.452 33.75H148.742L145.025 22.2304L141.209 33.75H139.499Z" fill="url(#paint1_linear_2633_159)"/>
<defs>
<linearGradient id="paint0_linear_2633_159" x1="93.75" y1="17.5" x2="118.813" y2="24.2917" gradientUnits="userSpaceOnUse">
<stop stop-color="#B2905B"/>
<stop offset="1" stop-color="#D8B075"/>
</linearGradient>
<linearGradient id="paint1_linear_2633_159" x1="133.75" y1="17.5" x2="158.813" y2="24.2917" gradientUnits="userSpaceOnUse">
<stop stop-color="#B2905B"/>
<stop offset="1" stop-color="#D8B075"/>
</linearGradient>
</defs>
</svg>
