<svg width="19" height="19" viewBox="0 0 19 19" fill="none" xmlns="http://www.w3.org/2000/svg">
<path d="M3.17248 14.441L2.67248 14.441L3.17249 14.441L3.17248 12.8858C3.17248 12.7532 3.22516 12.626 3.31893 12.5322L9.44552 6.40563C9.64078 6.21037 9.95736 6.21037 10.1526 6.40563L11.7078 7.96083C11.9031 8.15609 11.9031 8.47267 11.7078 8.66794L5.58124 14.7945C5.48747 14.8883 5.36029 14.941 5.22768 14.941L3.67248 14.941C3.39634 14.941 3.17248 14.7171 3.17248 14.441Z" stroke="#343434"/>
<rect x="9.20532" y="3.56323" width="7.55889" height="1.67975" rx="0.839876" transform="rotate(45 9.20532 3.56323)" fill="#343434"/>
<rect x="13.9563" y="1.18774" width="4.19938" height="5.87913" rx="1" transform="rotate(45 13.9563 1.18774)" fill="#343434"/>
</svg>
