<svg  xmlns="http://www.w3.org/2000/svg">
    <symbol   viewBox="0 0 1240 196" id="svg-wezoree">
        <path d="M65.528 191.662L15.5346 24.2042C14.2166 19.8887 12.8043 16.7929 11.2979 14.9166C9.79154 12.8527 7.15535 10.9764 3.38938 9.28777L1.37784e-06 7.88056L8.85757e-07 5.06616L74.8487 5.06614L74.8488 7.88055L68.9173 10.1321C64.5865 11.8207 61.6678 13.8846 60.1614 16.3238C58.6551 18.7629 58.5609 22.1402 59.879 26.4557L90.6659 143.535L123.995 45.3122L117.498 25.3299C116.18 21.3897 114.956 18.3877 113.827 16.3238C112.697 14.2599 110.814 12.5712 108.178 11.2578L101.964 7.88055L101.964 5.06614L172.858 5.06612L172.858 7.88053L164.102 11.2578C160.336 12.5712 158.171 14.5413 157.606 17.1681C157.229 19.6072 157.7 22.7969 159.018 26.7371L194.889 146.35L228.783 28.9886C230.101 24.4855 230.572 20.5454 230.195 17.1681C229.819 13.7908 227.465 11.3516 223.134 9.85062L217.203 7.88053L217.203 5.06612L256.463 5.06611L256.463 7.88052L249.119 10.6949C245.353 12.0083 242.717 14.0722 241.211 16.8866C239.704 19.701 238.386 23.1722 237.256 27.3L190.37 191.662L170.881 191.662L128.514 59.3843L85.0169 191.662L65.528 191.662Z" />
        <path d="M265.19 190.817L265.19 188.003L271.686 185.47C274.887 184.156 277.053 182.468 278.183 180.404C279.501 178.152 280.16 175.15 280.16 171.398L280.16 24.4855C280.16 20.733 279.595 17.8248 278.465 15.7609C277.524 13.5093 275.264 11.7269 271.686 10.4135L265.19 7.88052L265.19 5.06611L400.483 5.06609L402.177 48.408L399.353 48.408L387.208 21.9526C385.513 18.5753 383.724 15.8547 381.841 13.7908C379.958 11.7269 377.134 10.6949 373.368 10.6949L322.527 10.6949L322.527 92.0314L352.749 92.0314C356.515 92.0314 359.339 91.0932 361.222 89.217C363.294 87.1531 365.083 84.4325 366.589 81.0552L372.238 69.7975L375.062 69.7975L375.062 120.457L372.238 120.457L366.589 108.636C364.894 105.259 363.105 102.632 361.222 100.756C359.339 98.6922 356.515 97.6602 352.749 97.6602L322.527 97.6602L322.527 185.188L379.582 185.188C383.348 185.188 386.266 184.25 388.337 182.374C390.409 180.31 392.103 177.496 393.421 173.931L405.002 147.475L407.826 147.475L406.132 190.817L265.19 190.817Z" />
        <path d="M421.296 190.817L421.296 187.44L519.305 10.6949L465.64 10.6949C459.426 10.6949 454.342 12.1021 450.388 14.9165C446.622 17.7309 443.232 21.8587 440.22 27.2999L427.227 50.0967L424.403 50.0967L426.38 5.06608L564.497 5.06606L564.497 8.44336L466.487 185.188L528.061 185.188C534.275 185.188 539.171 183.781 542.748 180.967C546.514 177.965 549.904 173.743 552.916 168.302L565.062 145.787L567.886 145.787L565.909 190.817L421.296 190.817Z" />
        <path d="M667.213 195.883C655.727 195.883 644.617 193.819 633.884 189.691C623.339 185.564 613.83 179.466 605.357 171.398C597.072 163.142 590.481 152.916 585.585 140.721C580.69 128.525 578.242 114.265 578.242 97.9416C578.242 81.8057 580.69 67.6398 585.585 55.444C590.481 43.2482 597.166 33.1163 605.639 25.0484C614.113 16.7928 623.622 10.6011 634.167 6.47325C644.9 2.15782 655.915 9.89392e-05 667.213 9.69638e-05C678.699 9.49555e-05 689.715 2.064 700.259 6.1918C710.992 10.132 720.502 16.2299 728.787 24.4855C737.26 32.5534 743.945 42.7791 748.841 55.1625C753.736 67.3583 756.184 81.618 756.184 97.9416C756.184 113.89 753.736 128.056 748.841 140.439C743.945 152.635 737.26 162.861 728.787 171.116C720.502 179.184 710.992 185.376 700.259 189.691C689.715 193.819 678.699 195.883 667.213 195.883ZM667.213 189.973C677.569 189.973 685.949 187.252 692.351 181.811C698.753 176.182 703.366 166.707 706.191 153.385C709.204 139.876 710.71 121.395 710.71 97.9416C710.71 74.3005 709.204 55.8192 706.191 42.4977C703.366 28.9885 698.753 19.5133 692.351 14.0722C685.949 8.44332 677.569 5.62891 667.213 5.62891C657.045 5.62892 648.76 8.44333 642.358 14.0722C635.955 19.5134 631.248 28.9885 628.235 42.4977C625.411 55.8193 623.998 74.3005 623.998 97.9416C623.998 121.395 625.411 139.876 628.235 153.386C631.248 166.707 635.955 176.182 642.358 181.811C648.76 187.252 657.045 189.973 667.213 189.973Z" />
        <path d="M763.336 190.817L763.336 188.003L769.267 186.033C773.033 184.719 775.481 183.031 776.611 180.967C777.741 178.715 778.306 175.619 778.306 171.679L778.306 24.4855C778.306 20.7329 777.741 17.8247 776.611 15.7608C775.669 13.5093 773.41 11.7268 769.832 10.4134L763.336 7.88043L763.336 5.06602L844.116 5.06601C866.335 5.066 883.376 9.28762 895.239 17.7309C907.102 25.9864 913.033 37.5255 913.033 52.3481C913.033 60.6037 909.926 68.8593 903.713 77.1149C897.499 85.3705 887.707 91.7499 874.338 96.2529L913.598 173.931C915.293 177.12 917.176 179.747 919.247 181.811C921.507 183.687 924.425 185.376 928.003 186.877L931.675 188.284L931.675 190.817L881.117 190.817L839.314 102.163L820.108 102.163L820.108 171.679C820.108 175.244 820.673 178.152 821.803 180.404C822.932 182.655 825.286 184.344 828.864 185.47L835.643 188.003L835.643 190.817L763.336 190.817ZM820.108 96.5344L833.665 96.5344C847.223 96.5344 857.014 92.9694 863.04 85.8396C869.065 78.5221 872.078 67.7335 872.078 53.4739C872.078 39.0266 869.254 28.3318 863.605 21.3896C857.956 14.2597 848.447 10.6948 835.078 10.6948L820.108 10.6948L820.108 96.5344Z" />
        <path d="M940.693 190.817L940.693 188.003L947.19 185.47C950.391 184.156 952.556 182.468 953.686 180.404C955.004 178.152 955.663 175.15 955.663 171.398L955.663 24.4854C955.663 20.7329 955.098 17.8247 953.968 15.7607C953.027 13.5092 950.767 11.7268 947.19 10.4134L940.693 7.8804L940.693 5.06599L1075.99 5.06597L1077.68 48.4079L1074.86 48.4079L1062.71 21.9524C1061.02 18.5751 1059.23 15.8545 1057.34 13.7906C1055.46 11.7267 1052.64 10.6948 1048.87 10.6948L998.03 10.6948L998.03 92.0313L1028.25 92.0313C1032.02 92.0313 1034.84 91.0931 1036.73 89.2169C1038.8 87.153 1040.59 84.4324 1042.09 81.0551L1047.74 69.7974L1050.57 69.7974L1050.57 120.457L1047.74 120.457L1042.09 108.636C1040.4 105.259 1038.61 102.632 1036.73 100.756C1034.84 98.692 1032.02 97.6601 1028.25 97.6601L998.03 97.6601L998.03 185.188L1055.08 185.188C1058.85 185.188 1061.77 184.25 1063.84 182.374C1065.91 180.31 1067.61 177.496 1068.92 173.931L1080.51 147.475L1083.33 147.475L1081.63 190.817L940.693 190.817Z" />
        <path d="M1097.36 190.817L1097.36 188.003L1103.86 185.47C1107.06 184.156 1109.23 182.468 1110.36 180.404C1111.67 178.152 1112.33 175.15 1112.33 171.398L1112.33 24.4854C1112.33 20.7329 1111.77 17.8246 1110.64 15.7607C1109.7 13.5092 1107.44 11.7267 1103.86 10.4133L1097.36 7.88037L1097.36 5.06596L1232.66 5.06594L1234.35 48.4079L1231.53 48.4079L1219.38 21.9524C1217.69 18.5751 1215.9 15.8545 1214.01 13.7906C1212.13 11.7267 1209.31 10.6948 1205.54 10.6948L1154.7 10.6948L1154.7 92.0313L1184.92 92.0312C1188.69 92.0312 1191.51 91.0931 1193.4 89.2168C1195.47 87.1529 1197.26 84.4323 1198.76 81.055L1204.41 69.7974L1207.24 69.7974L1207.24 120.457L1204.41 120.457L1198.76 108.636C1197.07 105.259 1195.28 102.632 1193.4 100.756C1191.51 98.692 1188.69 97.6601 1184.92 97.6601L1154.7 97.6601L1154.7 185.188L1211.76 185.188C1215.52 185.188 1218.44 184.25 1220.51 182.374C1222.58 180.31 1224.28 177.496 1225.6 173.931L1237.18 147.475L1240 147.475L1238.31 190.817L1097.36 190.817Z" />
    </symbol>
</svg>
